<?xml version="1.0" encoding="utf-8"?>
<!-- Generator: Adobe Illustrator 27.4.0, SVG Export Plug-In . SVG Version: 6.00 Build 0)  -->
<svg version="1.1" id="Layer_1" xmlns="http://www.w3.org/2000/svg" xmlns:xlink="http://www.w3.org/1999/xlink" x="0px" y="0px"
	 viewBox="0 0 73.79 29.47" style="enable-background:new 0 0 73.79 29.47;" fill="#FFFFFF" xml:space="preserve">
<style type="text/css">
	.st0{clip-path:url(#SVGID_00000067916942881130632280000003590349882878675094_);fill:#FFFFFF;}
	.st1{fill:#FFFFFF;}
	.st2{fill:#FFFFFF;}
	.st3{fill:#FFFFFF;stroke:#FFFFFF;stroke-width:0.3;stroke-miterlimit:10;}
</style>
<g>
	<defs>
		<rect id="SVGID_1_" x="-191.12" y="-99.33" width="422.24" height="244.16"/>
	</defs>
	<clipPath id="SVGID_00000119838587065615295330000012749746467094890395_">
		<use xlink:href="#SVGID_1_"  style="overflow:visible;"/>
	</clipPath>
</g>
<g>
	<defs>
		<rect id="SVGID_00000028317663562372955300000000769421930252709016_" x="-190.12" y="-135.33" width="422.24" height="244.16"/>
	</defs>
	<clipPath id="SVGID_00000089564202065858904500000007396472855036187299_">
		<use xlink:href="#SVGID_00000028317663562372955300000000769421930252709016_"  style="overflow:visible;"/>
	</clipPath>
</g>
<path style="fill:#FFFFFF;stroke:#FFFFFF;stroke-width:0.3;stroke-miterlimit:10;" d="
	M28.36,18.02h2.41c1.38,0,2.07,0.47,2.07,1.42c0,0.68-0.24,1.2-0.72,1.58s-1.16,0.57-2.03,0.57h-2.83c-1.03,0-1.83-0.22-2.39-0.65
	c-0.56-0.43-0.84-1.05-0.84-1.86c0-0.52,0.21-1.27,0.63-2.26l3.83-8.97l-2.88,3.08c-0.69,0.75-1.34,1.12-1.95,1.12
	c-0.8,0-1.33-0.55-1.56-1.65l-0.42-1.85l-3.64,8.97c-1.25,3.08-2.21,5.17-2.86,6.28c-0.66,1.11-1.5,2.07-2.55,2.88
	c-1.51,1.17-3.24,1.76-5.2,1.76c-2.09,0-3.78-0.66-5.08-1.97c-1.3-1.32-1.95-3.03-1.95-5.15c0-2.77,1.02-5.21,3.07-7.32
	c1.1-1.12,2.48-2.03,4.13-2.72c1.65-0.69,3.27-1.04,4.87-1.04c0.81,0,1.47,0.17,1.95,0.52c0.49,0.35,0.73,0.81,0.73,1.39
	c0,0.61-0.26,1.1-0.77,1.48c-0.3,0.22-0.87,0.37-1.73,0.45c-1.98,0.18-3.57,0.63-4.78,1.36c-1,0.61-1.8,1.4-2.39,2.37
	c-0.59,0.97-0.89,1.99-0.89,3.05c0,1.13,0.29,2.02,0.86,2.67s1.37,0.98,2.37,0.98c1.2,0,2.25-0.51,3.14-1.54
	c0.89-1.03,1.86-2.84,2.93-5.45l5.92-14.56c0.52-1.28,1.21-1.92,2.09-1.92c0.56,0,1,0.18,1.32,0.54c0.32,0.36,0.6,0.98,0.84,1.88
	l0.91,3.43l4.47-4.4c0.98-0.96,1.9-1.45,2.76-1.45c0.6,0,1.1,0.18,1.51,0.54c0.41,0.36,0.62,0.8,0.62,1.32
	c0,0.33-0.08,0.69-0.24,1.07L33.73,4.8L28.36,18.02z M41.39,9.97c1.44,0,2.62,0.46,3.55,1.37s1.39,2.08,1.39,3.49
	c0,1.06-0.24,2.12-0.73,3.17s-1.12,1.88-1.89,2.51c-0.52,0.41-1.05,0.69-1.6,0.84c-0.55,0.15-1.32,0.23-2.32,0.23
	c-1.62,0-2.71-0.19-3.28-0.58c-1.33-0.91-2-2.26-2-4.05c0-1.89,0.68-3.52,2.04-4.9S39.53,9.97,41.39,9.97z M41.03,13.15
	c-0.74,0-1.41,0.36-2.01,1.09c-0.61,0.72-0.91,1.53-0.91,2.4c0,1.15,0.65,1.73,1.94,1.73c0.75,0,1.34-0.23,1.74-0.7
	c0.68-0.77,1.01-1.64,1.01-2.62c0-0.57-0.16-1.02-0.49-1.37C41.98,13.32,41.56,13.15,41.03,13.15z M57.36,18.33h1.7
	c1.26,0,1.89,0.44,1.89,1.33c0,0.61-0.22,1.08-0.67,1.42c-0.45,0.34-1.06,0.51-1.85,0.51h-2.01c-0.77,0-1.34-0.32-1.7-0.95
	c-0.64,0.64-1.32,0.95-2.04,0.95h-1.89c-1.1,0-1.98-0.38-2.64-1.13c-0.66-0.75-0.99-1.76-0.99-3.01c0-1.92,0.65-3.64,1.96-5.17
	s2.77-2.29,4.4-2.29c1.2,0,2.16,0.43,2.88,1.3l3.32-8.15c0.57-1.39,1.36-2.09,2.37-2.09c0.43,0,0.79,0.14,1.09,0.41
	c0.3,0.27,0.45,0.61,0.45,1.01c0,0.31-0.07,0.66-0.22,1.04l-0.18,0.4L57.36,18.33z M51.91,18.41h0.57c0.69,0,1.14-0.27,1.36-0.82
	l1.12-2.76c0.14-0.34,0.21-0.6,0.21-0.77c0-0.3-0.13-0.55-0.38-0.76s-0.57-0.31-0.95-0.31c-0.77,0-1.5,0.43-2.17,1.3
	c-0.67,0.86-1.01,1.8-1.01,2.8C50.65,17.96,51.07,18.41,51.91,18.41z M68.45,9.97c1.44,0,2.62,0.46,3.55,1.37s1.39,2.08,1.39,3.49
	c0,1.06-0.24,2.12-0.73,3.17c-0.49,1.05-1.12,1.88-1.89,2.51c-0.52,0.41-1.05,0.69-1.6,0.84c-0.55,0.15-1.32,0.23-2.32,0.23
	c-1.62,0-2.71-0.19-3.28-0.58c-1.33-0.91-2-2.26-2-4.05c0-1.89,0.68-3.52,2.04-4.9C64.98,10.66,66.59,9.97,68.45,9.97z M68.09,13.15
	c-0.74,0-1.41,0.36-2.01,1.09s-0.91,1.53-0.91,2.4c0,1.15,0.65,1.73,1.94,1.73c0.75,0,1.34-0.23,1.74-0.7
	c0.68-0.77,1.01-1.64,1.01-2.62c0-0.57-0.16-1.02-0.49-1.37C69.04,13.32,68.62,13.15,68.09,13.15z"/>
</svg>
