<svg width="2527" height="368" viewBox="0 0 2527 368" fill="none" xmlns="http://www.w3.org/2000/svg">
<g clip-path="url(#clip0_355_20)">
<rect width="2527" height="368" fill="url(#paint0_linear_355_20)"/>
<path d="M1622 183L1727.66 366H1516.34L1622 183Z" fill="url(#paint1_linear_355_20)" fill-opacity="0.45"/>
<rect x="594.355" y="54" width="203.388" height="203.388" transform="rotate(39.8602 594.355 54)" fill="url(#paint2_linear_355_20)" fill-opacity="0.3"/>
<rect x="845.03" y="196.292" width="43.9382" height="43.9382" transform="rotate(37.4837 845.03 196.292)" fill="url(#paint3_linear_355_20)" fill-opacity="0.44"/>
<rect x="1692" y="-21.8594" width="11.092" height="631.907" transform="rotate(-47.217 1692 -21.8594)" fill="url(#paint4_linear_355_20)" fill-opacity="0.5"/>
<circle cx="959" cy="6" r="88" fill="url(#paint5_linear_355_20)" fill-opacity="0.3"/>
<rect x="1756" y="-21.248" width="77.3262" height="659.841" transform="rotate(-47.217 1756 -21.248)" fill="url(#paint6_linear_355_20)" fill-opacity="0.5"/>
</g>
<defs>
<linearGradient id="paint0_linear_355_20" x1="0" y1="184" x2="2527" y2="184" gradientUnits="userSpaceOnUse">
<stop stop-color="#62469A"/>
<stop offset="0.67" stop-color="#9471C6"/>
<stop offset="1" stop-color="#C59DF1"/>
</linearGradient>
<linearGradient id="paint1_linear_355_20" x1="1622" y1="183" x2="1621.37" y2="346.72" gradientUnits="userSpaceOnUse">
<stop stop-color="white" stop-opacity="0.7"/>
<stop offset="1" stop-color="white" stop-opacity="0.2"/>
</linearGradient>
<linearGradient id="paint2_linear_355_20" x1="696.049" y1="54" x2="696.049" y2="257.388" gradientUnits="userSpaceOnUse">
<stop stop-color="white" stop-opacity="0.9"/>
<stop offset="1" stop-color="white" stop-opacity="0.3"/>
</linearGradient>
<linearGradient id="paint3_linear_355_20" x1="846.542" y1="194.051" x2="888.76" y2="243.791" gradientUnits="userSpaceOnUse">
<stop stop-color="white" stop-opacity="0.5"/>
<stop offset="1" stop-color="white" stop-opacity="0.2"/>
</linearGradient>
<linearGradient id="paint4_linear_355_20" x1="1701.33" y1="593.29" x2="1697.2" y2="25.1246" gradientUnits="userSpaceOnUse">
<stop stop-color="white" stop-opacity="0.3"/>
<stop offset="1" stop-color="white" stop-opacity="0.9"/>
</linearGradient>
<linearGradient id="paint5_linear_355_20" x1="959" y1="-2" x2="959" y2="94" gradientUnits="userSpaceOnUse">
<stop stop-color="white" stop-opacity="0.2"/>
<stop offset="1" stop-color="white" stop-opacity="0.8"/>
</linearGradient>
<linearGradient id="paint6_linear_355_20" x1="1795.47" y1="99.9997" x2="1823.78" y2="620.015" gradientUnits="userSpaceOnUse">
<stop stop-color="white" stop-opacity="0.9"/>
<stop offset="1" stop-color="white" stop-opacity="0.3"/>
</linearGradient>
<clipPath id="clip0_355_20">
<rect width="2527" height="368" fill="white"/>
</clipPath>
</defs>
</svg>
