<?xml version="1.0" encoding="UTF-8"?>
<svg id="_레이어_1" data-name="레이어 1" xmlns="http://www.w3.org/2000/svg" viewBox="0 0 136.5 205">
  <defs>
    <style>
      .cls-1 {
        fill: #37474f;
      }

      .cls-2 {
        fill: #455a64;
      }

      .cls-3 {
        fill: #c7c7c7;
      }

      .cls-4 {
        fill: #ff9bbc;
      }

      .cls-5 {
        fill: #f7a9a0;
      }

      .cls-6 {
        fill: #7e57c2;
      }

      .cls-7 {
        isolation: isolate;
        opacity: .1;
      }

      .cls-8 {
        fill: #263238;
      }
    </style>
  </defs>
  <g id="freepik--Lines--inject-67">
    <path class="cls-8" d="m97.86,96.34c2.73-1.69,5.49-3.34,8.25-4.98l8.31-4.88,8.36-4.79,4.2-2.36,4.23-2.32-4.12,2.51-4.14,2.47-8.31,4.88-8.35,4.79c-2.81,1.58-5.62,3.16-8.43,4.69Z"/>
    <path class="cls-8" d="m71.07,42.31c1.15-.78,2.34-1.51,3.52-2.22,1.19-.71,2.38-1.43,3.58-2.14s2.41-1.39,3.64-2.05l1.84-1.01c.62-.32,1.23-.64,1.86-.95-.58.39-1.17.76-1.75,1.14l-1.78,1.1c-1.19.73-2.38,1.43-3.59,2.14s-2.41,1.39-3.64,2.05-2.44,1.33-3.69,1.94Z"/>
    <path class="cls-8" d="m88.8,98.01c1.23-.82,2.47-1.59,3.73-2.36s2.52-1.51,3.79-2.26,2.55-1.46,3.84-2.17l1.94-1.05c.65-.34,1.3-.69,1.96-1.01-.61.41-1.23.8-1.85,1.2l-1.87,1.16c-1.25.77-2.52,1.51-3.79,2.26s-2.55,1.46-3.84,2.17-2.58,1.4-3.9,2.06Z"/>
    <path class="cls-8" d="m61.33,43.62c1.23-.82,2.48-1.59,3.73-2.36s2.52-1.51,3.79-2.26,2.55-1.46,3.84-2.17l1.94-1.05c.65-.34,1.3-.69,1.96-1.01-.61.41-1.23.8-1.85,1.2l-1.88,1.16c-1.25.77-2.52,1.51-3.79,2.26s-2.55,1.46-3.84,2.17-2.58,1.41-3.9,2.06Z"/>
    <path class="cls-8" d="m111.84,164.91c.89-.62,1.78-1.19,2.69-1.75s1.82-1.11,2.74-1.65,1.85-1.06,2.8-1.56l1.42-.75c.48-.24.95-.48,1.44-.71-.44.31-.89.6-1.33.89l-1.35.86c-.89.57-1.82,1.11-2.74,1.65s-1.85,1.06-2.8,1.56-1.89,1.01-2.85,1.47Z"/>
    <path class="cls-8" d="m98.43,86.44c1.49-.97,3-1.89,4.51-2.81s3.05-1.8,4.57-2.71,3.07-1.78,4.62-2.62l2.33-1.28c.78-.41,1.56-.84,2.35-1.24-.74.49-1.5.95-2.25,1.42l-2.27,1.39c-1.51.92-3.05,1.81-4.57,2.71s-3.07,1.78-4.62,2.62-3.11,1.71-4.68,2.52Z"/>
    <path class="cls-8" d="m111.5,161.67c1.23-.81,2.47-1.59,3.73-2.36s2.52-1.51,3.79-2.26,2.55-1.46,3.84-2.17l1.94-1.05c.65-.33,1.3-.68,1.96-1.01-.61.41-1.24.8-1.86,1.2l-1.87,1.16c-1.25.77-2.52,1.51-3.79,2.26s-2.55,1.46-3.84,2.17-2.58,1.4-3.9,2.06Z"/>
    <path class="cls-8" d="m63.56,195.07c1.92-1.22,3.87-2.4,5.82-3.55s3.92-2.31,5.88-3.47,3.95-2.27,5.93-3.38l2.98-1.66c1-.54,2-1.09,3.01-1.62-.96.61-1.93,1.2-2.89,1.81l-2.92,1.78c-1.95,1.17-3.92,2.31-5.88,3.47s-3.94,2.27-5.93,3.37-3.98,2.18-5.99,3.25Z"/>
    <path class="cls-8" d="m69.97,186.48c1.23-.82,2.48-1.59,3.73-2.36s2.52-1.51,3.79-2.26,2.55-1.46,3.84-2.17l1.94-1.05c.66-.34,1.3-.69,1.96-1.01-.61.41-1.23.8-1.85,1.2l-1.88,1.16c-1.25.77-2.52,1.51-3.79,2.25s-2.55,1.46-3.84,2.17-2.58,1.41-3.9,2.06Z"/>
  </g>
  <g id="freepik--Character--inject-67">
    <path class="cls-6" d="m22.94,192.35l-4.85-.97h0l2.42-12.14h0l4.85.97c2.23.45,3.69,2.61,3.24,4.84l-.81,4.04c-.43,2.23-2.59,3.7-4.83,3.27-.01,0-.02,0-.03,0Z"/>
    <path class="cls-7" d="m22.94,192.35l-4.85-.97h0l2.42-12.14h0l4.85.97c2.23.45,3.69,2.61,3.24,4.84l-.81,4.04c-.43,2.23-2.59,3.7-4.83,3.27-.01,0-.02,0-.03,0Z"/>
    <path class="cls-6" d="m23.26,192.41l-7.25-1.45c-2.7-.54-4.45-3.16-3.91-5.86l.47-2.38c.54-2.69,3.17-4.44,5.87-3.9l7.25,1.44c-2.71-.54-5,1.28-5.53,3.97l-.48,2.39c-.54,2.69.88,5.24,3.58,5.79Z"/>
    <path class="cls-7" d="m25.9,186.51c-.32,1.62-1.21,2.81-1.99,2.66s-1.15-1.6-.82-3.21c.33-1.62,1.21-2.81,1.99-2.65s1.15,1.59.82,3.21Z"/>
    <polygon class="cls-3" points="24.72 185.07 24.29 187.2 40.31 190.4 40.74 188.26 34.53 185.73 35.25 182.17 32.01 181.52 31.31 185 24.72 185.07"/>
    <path class="cls-6" d="m48.7,197.45l-4.05-.81h0l2.42-12.11h0l4.05.81c2.7.54,4.46,3.16,3.92,5.86h0l-.48,2.39c-.56,2.68-3.17,4.41-5.86,3.87Z"/>
    <path class="cls-7" d="m48.7,197.45l-4.05-.81h0l2.42-12.11h0l4.05.81c2.7.54,4.46,3.16,3.92,5.86h0l-.48,2.39c-.56,2.68-3.17,4.41-5.86,3.87Z"/>
    <path class="cls-6" d="m49.82,197.7l-7.25-1.45c-2.7-.54-4.45-3.16-3.91-5.86l.48-2.38c.54-2.69,3.16-4.44,5.86-3.9l7.25,1.44c-2.71-.54-5,1.28-5.53,3.97l-.48,2.39c-.54,2.69.88,5.24,3.58,5.79Z"/>
    <path class="cls-7" d="m52.46,191.81c-.32,1.62-1.21,2.81-1.99,2.65s-1.15-1.6-.82-3.21,1.21-2.81,1.99-2.65,1.15,1.58.82,3.21Z"/>
    <path class="cls-6" d="m74.74,173.97l-4.05-.81h0l2.42-12.14h0l4.05.81c2.7.53,4.47,3.14,3.94,5.84,0,0,0,0,0,.01l-.47,2.37c-.54,2.7-3.16,4.44-5.87,3.91h-.02Z"/>
    <path class="cls-7" d="m74.74,173.97l-4.05-.81h0l2.42-12.14h0l4.05.81c2.7.53,4.47,3.14,3.94,5.84,0,0,0,0,0,.01l-.47,2.37c-.54,2.7-3.16,4.44-5.87,3.91h-.02Z"/>
    <path class="cls-6" d="m75.86,174.2l-7.25-1.45c-2.7-.55-4.44-3.16-3.91-5.86l.48-2.38c.54-2.69,3.16-4.44,5.86-3.9l7.26,1.44c-2.71-.54-5,1.28-5.56,3.97l-.47,2.39c-.53,2.7.9,5.25,3.6,5.79Z"/>
    <ellipse class="cls-7" cx="77.09" cy="168.03" rx="2.99" ry="1.43" transform="translate(-102.78 210.72) rotate(-78.7)"/>
    <polygon class="cls-3" points="77.33 166.85 76.89 168.99 92.91 172.18 93.34 170.05 87.14 167.51 87.85 163.96 84.61 163.31 83.92 166.78 77.33 166.85"/>
    <path class="cls-6" d="m102.12,179.43l-4.85-.97h0l2.42-12.14h0l4.05.81c2.68.56,4.41,3.16,3.88,5.84l-.64,3.21c-.45,2.23-2.62,3.68-4.85,3.23v.02Z"/>
    <path class="cls-7" d="m102.12,179.43l-4.85-.97h0l2.42-12.14h0l4.05.81c2.68.56,4.41,3.16,3.88,5.84l-.64,3.21c-.45,2.23-2.62,3.68-4.85,3.23v.02Z"/>
    <path class="cls-6" d="m102.42,179.49l-7.25-1.45c-2.7-.54-4.44-3.16-3.91-5.85l.48-2.39c.54-2.69,3.16-4.44,5.86-3.9l7.26,1.44c-2.71-.54-5,1.28-5.54,3.97l-.47,2.39c-.55,2.69.87,5.24,3.57,5.78Z"/>
    <path class="cls-7" d="m105.06,173.6c-.33,1.62-1.22,2.81-1.99,2.65s-1.15-1.6-.82-3.22c.32-1.62,1.22-2.81,1.99-2.65s1.15,1.59.82,3.22Z"/>
    <path class="cls-1" d="m90.49,146.67c1.19-.32,20.23,1.88,23.23,2.93.2.07,0,2.39.01,2.56.05,1.02-2.77,5.57-5.55,7.03-2.78,1.46-42.56,17.61-70.91,22.95-6.4,1.2-17.97-.03-18.8-4.01-.13-.84-.09-1.7.11-2.53.64-1.47,2.47-2.32,6.24-4.31,17.03-9.02,57.68-20.28,58.83-20.51s6.09-3.92,6.84-4.12Z"/>
    <path class="cls-8" d="m90.83,144.98c1.27-.31,22.09,3.99,22.89,4.62s-3.07,6.83-5.85,8.29c-2.78,1.46-41.89,17.22-70.26,22.56-9.21,1.73-29.48-1.84-12.45-10.86,17.03-9.02,57.69-20.27,58.83-20.51s6.08-3.92,6.83-4.11Z"/>
    <path class="cls-8" d="m75.95,61.56c3.93,3.77,8.01,8.94,13.4,10.61,4.23,1.3,8.78.23,12.68-1.57,8.59-3.97,16.95-12.74,14.49-22.94-.98-4.08-6.09-9.09-10.7-7.81-2.37.67-4.21,2.3-6.23,3.64-2.64,1.77-5.36,1.86-8.44,1.04-6.02-1.58-6.11-3.56-10.99-7.13-.91-.66-4.58-1.89-6.02-1.68-1.39.1-2.72.57-3.86,1.37-1.14.54-2.13,1.34-2.88,2.35-1.55,2.19-1.39,5.73-1.6,8.29-.21,2.56.39,4.38,2.25,6.23,2.59,2.57,5.27,5.06,7.9,7.59Z"/>
    <path class="cls-8" d="m77.44,63.75c-3.38-3.68-6.68-7.42-10.01-11.15,0,0,0-.05.03-.03,2.83,2.98,5.69,5.93,8.48,8.95,2.79,3.03,5.34,6.18,8.33,8.91,6.7,6.09,15.61,1.53,20.35-4.54.22-.28.63.1.42.37-4.33,5.2-11.41,9.74-18.29,6.43-3.77-1.81-6.56-5.91-9.31-8.94Z"/>
    <path class="cls-8" d="m76.83,36.71s-.03-.07,0-.1c.03-.03.07-.03.1,0h0c3.9,3.11,8.15,7.1,13.28,7.83,2.53.36,5.1-.06,7.39-1.19,1.81-.9,3.17-2.34,4.75-3.57,6.17-4.74,13.98,2,13.35,8.81-.02.15-.26.13-.25-.03.23-4.99-3.18-9.68-8.41-10.03-4.2-.27-6.64,4.11-10.3,5.54-7.58,2.99-14.57-2.38-19.91-7.25Z"/>
    <path class="cls-5" d="m65.85,68.46c-.98,8.88.54,27.53,2.99,35.04,1.06,3.24,7.9,16.41,14.2,21.28,2.35,1.82,14.05-11.12,11.72-13.37-1.59-1.53-10.22-14.11-11.03-15.62-1.53-2.81-8.73-21.34-11.66-29.53-1.69-4.65-5.58-3.72-6.22,2.2Z"/>
    <path class="cls-5" d="m80.69,122.35c.18.27,2.71,4.13,4.54,6.04,1.37,1.43,5.42,5.44,7.15,4.09,1.18-.92-.93-3.56-2.38-5.45-.76-1.01-1.39-2.77-.72-3.24,1.17-.83,3.1,1.8,4.23,3.78,2.18,3.81,4.31,11.38,7.29,10.88,1.13-.19,1.17-3.44.53-5.31,1.33,2.52,2.45,5.61,3.71,5.45.72-.09,1.54-1.31,1.6-2.07.52.58,1.12.87,1.77.68,1.09-.33,1.37-1.56,1.25-3.07.28.12.59.11.86-.04,2.71-1.36-.84-11.84-3-13.87-6.33-5.99-14.26-10.15-14.26-10.15-4.22.66-12.58,12.29-12.58,12.3Z"/>
    <path class="cls-8" d="m95.41,121.86c1.59,1.28,2.89,2.89,3.81,4.72,1.15,2.3,1.55,4.45,2.27,6.8,0,.03-.01.05-.04.06-.02,0-.05,0-.06-.03-.33-1.11-1.93-5.48-2.38-6.53-.81-1.92-2.05-3.63-3.62-4.99,0,0,0-.04.03-.02Z"/>
    <path class="cls-8" d="m98.58,119.54c1.63,1.64,3.29,3.32,4.56,5.27,1.38,2.13,1.97,4.64,2.57,7.08.36,1.47.69,2.94.98,4.41,0,.06-.08.1-.1.03-.59-2.5-1.26-4.98-2-7.45-.67-2.29-1.79-4.42-3.3-6.28-.86-1.06-1.8-2.06-2.74-3.04-.02-.02,0-.05.02-.03Z"/>
    <path class="cls-8" d="m102.22,118.02c1.67,1.47,3.09,2.74,4.17,4.7,1.43,2.6,2.25,6.07,2.54,7.29.3,1.35.59,2.71.83,4.08,0,.05-.09.08-.1.02-.62-3.04-1.43-6.03-2.44-8.96-.45-1.4-1.13-2.73-1.99-3.93-.92-1.15-1.93-2.21-3.02-3.19,0,0,0-.02.01,0Z"/>
    <path class="cls-6" d="m65.35,81.04l12.09-2.45s-2.99-9.62-5.6-14.76-5.7-2.49-6.39,5.88c-.69,8.37-.1,11.33-.1,11.33Z"/>
    <path class="cls-8" d="m76.04,76.23c-1.71.26-3.41.56-5.1.9-.83.17-1.67.33-2.5.51s-1.7.44-2.56.61c-.06.02-.05.11.01.1.84-.16,1.68-.26,2.52-.4s1.72-.34,2.58-.51c1.7-.34,3.38-.73,5.06-1.16.05,0,.04-.06-.01-.06Z"/>
    <path class="cls-7" d="m75.86,78.91l-10.52,2.13s-.59-2.97.08-11.33c.53-6.57,2.55-9.61,4.65-8.14l5.79,17.34Z"/>
    <polygon class="cls-8" points="78.45 78.89 77.74 77.29 64.61 80.53 64.82 82.17 78.45 78.89"/>
    <path class="cls-6" d="m68.35,88.45l-.75,9.4-31.32-11.9s13.88-19.88,24.14-25.89c5.3-3.11,10.52.19,11.46,4.53.24,1.1,2.83,13.57,1.12,18.11-.89,2.37-2.52,4.38-4.65,5.75Z"/>
    <path class="cls-8" d="m65.46,84.07c-1.35-.39-2.73-.67-4.13-.82-.7-.08-1.4-.1-2.11-.12-.35,0-.7-.03-1.05-.05-.37-.01-.73-.07-1.08-.19-.03,0-.05.04,0,.05.31.15.63.27.96.37.32.08.65.14.99.17.71.09,1.42.12,2.13.19,1.43.14,2.86.28,4.27.52.05.02.08-.1.02-.12Z"/>
    <path class="cls-8" d="m68.1,86.69c-1.01-.56-2.05-1.06-3.13-1.48-.54-.21-1.09-.38-1.64-.54l-.82-.23c-.3-.07-.61-.1-.9-.17-.03,0-.06.04,0,.05.28.08.53.22.8.32l.81.3c.54.2,1.07.41,1.61.6,1.08.39,2.16.8,3.23,1.23.06.03.09-.06.04-.09Z"/>
    <path class="cls-5" d="m56.23,61.4c-3.24-5-13.38-20.98-14.2-23.5-2.92-8.9,9.23-12.17,11.07-10.33,3.43,3.44,6.45,16.61,8.93,27.42,1.12,4.94-.12,15.14-5.8,6.4Z"/>
    <path class="cls-5" d="m72.6,30.93c1.59-1.65-5.26-16.81-8.3-15.29-11.13,5.56-20.97,13.84-22.13,16.77-1.17,3.23.5,6.79,3.74,7.96.61.22,1.25.34,1.89.37,6.29.34,23.24-8.14,24.8-9.8Z"/>
    <path class="cls-8" d="m52.65,40.21c6.92-1.19,15.31-6.34,15.33-6.34.12-.04.1-.23.02-.2-1.3.45-10.44,4.97-15.37,6.35-.04.01-.03.2.02.2Z"/>
    <path class="cls-5" d="m63.43,16.11c1.54-1.25,9.22-6.47,11.65-7.41s9.64-3.17,10.56-1.38c.91,1.79-1.15,2.63-1.15,2.63,0,0,3.19-.45,3.95,1.43s-2.49,3.05-2.49,3.05c0,0,3.32-.23,3.95,1.71.63,1.93-2.84,2.56-2.84,2.56,0,0,3.02-.35,2.86,1.46-.19,2.17-5.83,2.19-8.44,3.44-.59.28-11.6,6.59-11.6,6.59l-6.46-14.07Z"/>
    <path class="cls-8" d="m87.37,18.61c-4.16.02-5.96.75-9.39,2.94-.07.04-.15-.05-.08-.1,3.17-2.45,5.31-3.69,9.48-3.05.2.03.19.2,0,.2Z"/>
    <path class="cls-8" d="m86.31,14.41c-4.31.4-6.27,1.17-10.04,3.2-.05.03-.11-.06-.05-.09,3.51-2.31,5.69-3.49,10.04-3.32.2,0,.25.2.06.21Z"/>
    <path class="cls-8" d="m84.32,10.04c-4.14.69-6.33,1.44-9.74,3.89-.04.02-.08.02-.11-.02-.02-.03-.02-.08.01-.1,3.23-2.83,5.96-3.78,9.8-3.88.26-.01.3.07.03.11Z"/>
    <path class="cls-5" d="m67.72,31.6s5.11.93,7.44.84,10.92-3.6,10.26-5.5c-.85-2.44-6.2-1.39-8.76-.53,0,0-1.95-5.66-5.96-5.73s-2.98,10.91-2.98,10.91Z"/>
    <path class="cls-8" d="m84.98,26.34c-2.38-1.67-5.67-.33-8.21.32-.13.04-.26-.03-.3-.16,0-.03-.01-.05-.01-.08-.98-2.32-3.05-5.31-5.63-5.85-.03,0-.06-.03-.05-.07s.03-.06.07-.05c2.87.21,5.13,2.98,6.04,5.59,2.6-.7,5.95-1.91,8.12.29l-.02.02Z"/>
    <path class="cls-6" d="m59.59,43.61l-11.91,5.39s5.34,9.23,9.32,13.93c3.97,4.69,6.5,1.21,5.21-7.59-1.3-8.8-2.62-11.73-2.62-11.73Z"/>
    <path class="cls-8" d="m49.7,51.12c1.7-.68,3.39-1.39,5.05-2.15.82-.36,1.65-.72,2.45-1.12s1.65-.86,2.49-1.26c.03-.01.04-.04.03-.07s-.04-.04-.07-.03c-.82.36-1.68.66-2.51,1.01s-1.7.76-2.54,1.14c-1.67.76-3.32,1.55-4.95,2.39-.03.06,0,.11.05.09Z"/>
    <path class="cls-8" d="m55.93,61.5c.78,1.19,1.28,2.6,2.02,3.8.02.03,0,.06-.04.04-.39-.58-.91-1.38-1.08-1.68.04.13.24,1.06.32,1.47,0,0-.03.03-.03,0-.16-.39-.59-1.91-.65-2.23-.23-.44-.42-.9-.58-1.37-.03,0,.03-.07.05-.03Z"/>
    <polygon class="cls-8" points="46.82 48.49 47.82 49.93 60.13 44.35 59.62 42.77 46.82 48.49"/>
    <path class="cls-8" d="m66.06,58.5c-1.72-.14-3.2.63-2.94,2.3s3.33,6.17,5.81,6.23,2.82-3.26,2.75-4.14-1.43-4.05-5.61-4.4Z"/>
    <path class="cls-5" d="m64.4,59.98c-.05.63,2.25,5.09,5.04,5.39,1.12.14,1.59-3.91,1.59-3.91l.19-.33,2.65-4.57-4.63-5.53-.68-.75s-.64,1.3-1.43,2.92l-.11.23c-.05.09-.1.18-.13.26-.12.24-.24.49-.36.74s-.18.37-.26.57-.18.4-.27.6c-.63,1.42-1.17,2.88-1.6,4.38Z"/>
    <path class="cls-8" d="m73.88,56.56l-1.33,2.29c-2.77.86-6.12-1.17-7.12-1.84.18-.46.38-.94.58-1.41l.27-.59c.09-.21.18-.39.26-.58s.24-.5.36-.74c.04-.09.09-.17.13-.26l.11-.23c.78-1.63,1.43-2.92,1.43-2.92l.68.75,4.63,5.53Z"/>
    <path class="cls-5" d="m63.2,44.84c-3.67,8.53,1.03,11.68,2.88,12.47,1.67.72,7.46,2.94,11.99-5.16,4.53-8.1,1.72-12.5-2.02-14.34s-9.18-1.5-12.85,7.03Z"/>
    <path class="cls-8" d="m71.39,38.23s-.76,1.29-.58,2.44c.38,2.35,2.98,2.49,3.58,3.55s-.17,2.51.32,3.48c.68,1.34,2.15,1.31,2.09,2.07s-.24,3.2.58,3.72,9.28-13.5-2.56-16.31c0,0-1.41-1.13-4.27-.52-3.15.64-5.68,4.92-5.68,4.92,0,0,.08-.05.58-.29.72-.37,1.06-.76,1.57-.97.8-.34,1.1-.04,1.92-.36.92-.42,1.74-1.01,2.45-1.73Z"/>
    <path class="cls-8" d="m71.76,37.64c-.35.54-.65,1.13-.87,1.74-.25.58-.34,1.22-.26,1.84.16.59.53,1.11,1.04,1.45.5.36,1.09.59,1.62,1.01.28.21.49.5.61.83.09.33.12.67.08,1.01-.11.62-.05,1.25.17,1.84.27.56.77.97,1.37,1.12.59.16,1.29.16,1.77.6-.53-.38-1.2-.33-1.82-.46-.67-.14-1.23-.57-1.54-1.17-.26-.62-.34-1.3-.22-1.96.03-.3,0-.61-.08-.9-.11-.27-.29-.51-.53-.68-.47-.38-1.07-.63-1.59-1.03-.27-.2-.51-.43-.7-.7-.21-.27-.35-.59-.4-.92-.06-.67.06-1.34.35-1.95.27-.59.61-1.14,1-1.66Z"/>
    <path class="cls-8" d="m71.38,38.1c-.28.54-.62,1.04-1.04,1.49-.41.47-.95.82-1.55.99-.3.06-.6.09-.9.09-.27.01-.53.1-.76.25-.22.21-.45.4-.71.56-.27.14-.57.22-.87.24.29-.07.55-.19.79-.36.23-.18.44-.39.64-.61.25-.21.56-.33.88-.35.29,0,.57-.04.85-.1.55-.16,1.05-.46,1.45-.87.43-.41.84-.85,1.21-1.32Z"/>
    <path class="cls-5" d="m75.83,51.61s2.73-2.25,3.8-1.2-1.52,4.68-3.16,4.82c-.86.13-1.67-.46-1.8-1.32,0-.02,0-.04,0-.06l1.16-2.25Z"/>
    <path class="cls-8" d="m78.87,51.44s.02.04,0,.04c-1.16.13-1.96.95-2.64,1.84.34-.33.89-.33,1.22.01.03.03.06.07.09.11.02.03,0,.06-.04.05-.34-.22-.79-.21-1.11.04-.27.2-.51.43-.72.69-.08.08-.23-.03-.17-.11v-.03c.36-1.33,1.91-2.91,3.38-2.64Z"/>
    <path class="cls-8" d="m65.89,44.39c.21.05.42.05.63.1.22.07.46.06.67-.02.13-.08.19-.23.15-.38-.13-.27-.39-.45-.69-.47-.29-.07-.6-.02-.86.12-.17.11-.21.33-.1.49.05.07.12.13.21.15Z"/>
    <path class="cls-8" d="m71.54,47.54c-.21-.05-.41-.12-.61-.19-.23-.04-.43-.15-.59-.32-.08-.13-.06-.3.05-.4.23-.18.55-.23.83-.11.29.08.55.25.71.5.1.17.05.38-.12.48-.08.05-.18.06-.27.04Z"/>
    <path class="cls-8" d="m69.92,48.16s.04.05.02.07c-.27.58-.48,1.28-.03,1.7,0,0,0,.04,0,.03-.62-.37-.34-1.3.01-1.8Z"/>
    <path class="cls-8" d="m70.7,47.77c.97.33.24,2.25-.66,1.94s-.16-2.21.66-1.94Z"/>
    <path class="cls-8" d="m71.04,48.01c.13.17.22.43.4.51s.46-.02.71-.16c.02,0,.03,0,.02.04-.13.37-.42.69-.83.6s-.51-.52-.47-.91c.02-.06.12-.14.17-.07Z"/>
    <path class="cls-8" d="m66.43,46.67s-.05,0-.06.04c-.17.61-.47,1.28-1.08,1.31v.03c.69.14,1.08-.76,1.15-1.38Z"/>
    <path class="cls-8" d="m66.08,45.89c-.95-.39-1.65,1.54-.77,1.9s1.56-1.58.77-1.9Z"/>
    <path class="cls-8" d="m65.67,45.85c-.21.05-.44.18-.65.13s-.35-.33-.43-.58c0-.03-.03,0-.04,0-.2.34-.09.78.24,1,.35.18.72-.05.97-.39.02-.05,0-.18-.09-.15Z"/>
    <path class="cls-8" d="m67.72,52.71c-.19.1-.4.25-.62.19-.22-.08-.43-.2-.6-.36,0,0-.04,0-.04.02.1.3.35.52.66.57.27.02.53-.14.65-.38.02-.03-.02-.06-.05-.05Z"/>
    <path class="cls-8" d="m66.07,49.62c-.23.41-.43.83-.61,1.26,0,.04.08.1.22.16h0c.68.41,1.54.41,2.22,0,.02-.01.03-.04.02-.06s-.04-.03-.06-.02h0c-.67.16-1.38.1-2.02-.18.02-.13.84-1.41.78-1.44-.33-.1-.68-.15-1.03-.15.91-1.77,2.11-3.39,2.99-5.17,0-.07-.06-.12-.1-.07-1.37,1.6-2.47,3.62-3.46,5.43-.11.23.87.25,1.06.24Z"/>
    <path class="cls-8" d="m65.76,50.89c.1.43.31.83.61,1.16.17.17.38.29.62.33.52.09.73-.33.8-.73.04-.21.06-.43.05-.65-.69.19-1.42.15-2.08-.11Z"/>
    <path class="cls-4" d="m66.37,52.05c.17.17.38.29.62.33.52.09.73-.33.8-.73-.51-.21-1.1-.05-1.43.4Z"/>
    <path class="cls-5" d="m105.13,167.14c-1.37.12-37.72-8.79-38.9-10-.45-.46.54-5.82,1.92-12.26,0-.07.02-.14.05-.2.28-1.35,3.89-12.56,3.89-12.56l23.27,5.92-3.64,12.12-.1.4s12.39,9.62,13.54,11.09,1.38,5.39-.02,5.5Z"/>
    <path class="cls-6" d="m105.33,167.25c-1.4.12-38.14-8.75-39.32-9.97-.45-.46.52-5.88,1.9-12.38l23.71,5.64s12.55,9.67,13.71,11.15,1.39,5.44,0,5.56Z"/>
    <path class="cls-8" d="m105.15,165.66c-6.12-1.64-30.97-7.67-37.15-8.82-.05,0-.06.03,0,.04,6.03,1.76,30.94,7.58,37.14,8.88.13.02.17-.08.02-.1Z"/>
    <path class="cls-8" d="m103.27,159.8c-1.37-.37-2.84-.15-4.05.61-1.08.67-1.86,1.73-2.17,2.96,0,.04.06.05.08,0,1.04-2.39,3.52-3.81,6.11-3.49.06,0,.08-.08.03-.09Z"/>
    <path class="cls-8" d="m90.7,151.28c-2.46-.63-5.53-.45-7.53,1.19-.08.06.02.17.1.15,2.43-.61,4.91-.95,7.42-1.04.09,0,.16-.06.17-.15,0-.09-.06-.16-.15-.17Z"/>
    <path class="cls-8" d="m92.43,152.48c-2.46-.63-5.53-.45-7.53,1.19-.08.06.02.17.1.15,2.43-.61,4.91-.95,7.42-1.04.09,0,.16-.06.17-.15,0-.09-.06-.16-.15-.17Z"/>
    <path class="cls-8" d="m94.15,153.68c-2.46-.63-5.53-.45-7.53,1.19-.08.06.02.17.1.15,2.43-.61,4.91-.95,7.42-1.04.09,0,.16-.06.17-.15,0-.09-.06-.16-.15-.17Z"/>
    <path class="cls-8" d="m95.88,154.88c-2.46-.63-5.53-.45-7.53,1.2-.08.06.02.17.1.15,2.43-.61,4.91-.95,7.42-1.04.09,0,.15-.09.14-.17,0-.07-.06-.13-.12-.14Z"/>
    <path class="cls-8" d="m70.98,151.37c-2.76-.66-3.79,3.63-1.02,4.29s3.8-3.63,1.02-4.29Z"/>
    <path class="cls-8" d="m94.96,145.36c-1-1.33-2.81-.71-3.85.18-1.74,1.55-3.03,3.54-3.76,5.75-.01.03,0,.07.04.08,0,0,.01,0,.02,0,0,.17.13.31.3.32.03,0,.06,0,.09-.01,2.05-.79,4.32-1.38,6.08-2.77,1.02-.81,2.01-2.3,1.07-3.56Zm-4.29,4.5c-1,.41-2.01.77-2.99,1.22.69-1.14,1.44-2.25,2.25-3.31.4-.51.84-.99,1.3-1.45.73-.68,3.65-2.15,3.25.58-.2,1.51-2.62,2.46-3.81,2.95h0Z"/>
    <path class="cls-8" d="m81,150.75c2.07.85,4.43.77,6.62.96.17,0,.31-.13.32-.3,0-.04,0-.08-.02-.12.03-.02.04-.06.02-.09,0,0,0,0,0,0-1.32-1.92-3.13-3.46-5.23-4.46-1.24-.56-3.15-.65-3.74.9-.53,1.48.85,2.62,2.05,3.14Zm-1.15-1.76c-1.16-2.51,2.06-1.92,2.95-1.49.57.3,1.13.64,1.65,1.02,1.11.77,2.11,1.67,3.11,2.54-1.07-.15-2.14-.22-3.19-.33-1.3-.14-3.89-.38-4.52-1.76v.02Z"/>
    <path class="cls-1" d="m66.68,92.02s-.7,3.87-.96,5.2c0,0,22.66,2.66,30.28,6.5,2.79,1.41,7.12,8.67,6.81,12.05-1.35,14.65-10.36,32.62-10.36,32.62l-23.83-5.3,5.61-18.08c.81.25-26.37,6.79-36.45-14.63-3.28-6.98-1.04-24.33-1.04-24.33l29.94,5.97Z"/>
    <polygon class="cls-2" points="67.74 143.54 68.84 138.09 94.61 144.54 92.69 149.85 67.74 143.54"/>
    <path class="cls-8" d="m78.44,99.1l-12.01,27.03c-8.63.24-22.17-1.99-28.64-15.74-3.28-6.98-1.04-24.33-1.04-24.33l29.92,5.96s-.7,3.87-.96,5.2c0,0,5.92.7,12.72,1.88Z"/>
    <path class="cls-8" d="m75.81,118.96c-.27.75-.53,1.5-.74,2.27.06-.71.14-1.41.26-2.1,0-.08-.12-.11-.14-.02-.23.94-.34,1.9-.31,2.87v.09c-.29,1.03-.47,2.07-.55,3.13,0,.06.09.09.11.01.35-1.02.57-2.09.81-3.13s.43-2.07.65-3.1c-.02-.04-.09-.06-.1-.02Z"/>
    <path class="cls-5" d="m68.12,175.96c-1.38.1-35.84-8.72-37-9.95-.45-.46.58-5.81,2-12.25l.02-.2c.29-1.35,4.28-16.62,4.28-16.62l23.35,5.47-4.13,16.8-.38.91s10.62,9.15,11.75,10.64c1.13,1.49,1.47,5.1.09,5.2Z"/>
    <path class="cls-6" d="m68.23,176.27c-1.4.1-36.08-8.92-37.25-10.15-.45-.46.59-5.87,2.02-12.37l23.53,5.85s-.27.48-.15.58c1.53,1.21,10.83,9.15,11.9,10.54,1.13,1.49,1.34,5.45-.05,5.56Z"/>
    <path class="cls-8" d="m68.07,174.68c-6.11-1.7-28.93-7.76-35.09-8.98-.05,0-.06.02,0,.04,6.01,1.82,28.89,7.68,35.08,9.04.12.03.13-.07.02-.1Z"/>
    <path class="cls-8" d="m66.22,168.8c-2.63-.72-5.39-.68-7.05-.18s-3.08,1.36-3.33,2.65c0,.04.12.07.14.02,1.25-2.24,5.76-3.35,10.23-2.44.09.06.11-.01.01-.04Z"/>
    <path class="cls-8" d="m55.1,160.41c-2.41-.79-5.49-.8-7.61.7-.08.06-.02.17.09.16,2.46-.45,4.96-.63,7.46-.55.09,0,.16-.06.17-.15,0-.07-.04-.14-.1-.16Z"/>
    <path class="cls-8" d="m56.75,161.72c-2.41-.79-5.48-.81-7.6.7-.09.06,0,.18.08.16,2.46-.45,4.96-.64,7.46-.56.08.02.17-.04.19-.12.02-.08-.04-.17-.12-.19h0Z"/>
    <path class="cls-8" d="m58.39,163.03c-2.41-.79-5.49-.8-7.6.7-.09.06-.02.17.08.16,2.46-.45,4.96-.63,7.46-.55.09,0,.16-.06.17-.15,0-.07-.04-.14-.1-.16Z"/>
    <path class="cls-8" d="m60.03,164.33c-2.41-.79-5.48-.81-7.6.7-.08.06-.02.17.09.16,2.46-.45,4.96-.64,7.46-.55.09,0,.16-.07.17-.15,0-.07-.04-.13-.11-.16Z"/>
    <path class="cls-8" d="m36.02,160.27c-2.76-.69-3.83,3.59-1.07,4.28s3.83-3.59,1.07-4.28Z"/>
    <path class="cls-8" d="m59.73,154.78c-.91-1.39-2.77-.88-3.85-.07-1.83,1.44-3.26,3.33-4.13,5.49,0,.05,0,.08.05.09-.01.17.11.32.28.34.03,0,.06,0,.09,0,2.09-.67,4.41-1.1,6.24-2.37,1.07-.74,2.16-2.15,1.3-3.47Zm-4.58,4.21c-1.02.34-2.05.64-3.06,1.01.77-1.09,1.6-2.15,2.48-3.16.43-.48.9-.94,1.39-1.36.77-.63,3.78-1.91,3.2.79-.32,1.5-2.79,2.3-4.01,2.71Z"/>
    <path class="cls-8" d="m45.46,159.23c2.01.98,4.37,1.06,6.54,1.38.17,0,.32-.12.33-.29,0-.03,0-.06,0-.09.03-.02.04-.06.02-.09,0,0,0,0,0-.01-1.18-2-2.87-3.65-4.89-4.79-1.2-.64-3.13-.86-3.77.66-.68,1.43.6,2.66,1.79,3.24Zm-1.03-1.83c-.99-2.58,2.18-1.78,3.04-1.27.55.34,1.08.71,1.59,1.11,1.03.86,2.01,1.77,2.94,2.73-1.05-.22-2.12-.35-3.17-.54-1.29-.22-3.85-.63-4.4-2.04Z"/>
    <path class="cls-1" d="m59.58,147.29l-23.49-5.13,4.66-21.9s-7.53-2.6-10.93-6.28c-10.15-11.02,6.48-28.02,6.48-28.02l26.93,5.37-21.76-4.34c.78-1.22,4.47-5.14,8.09-6.73s13.68-1.69,16.47.9c12.4,11.51-6.44,66.12-6.44,66.12Z"/>
    <path class="cls-8" d="m41.73,86.43c-1.46,1.1-2.68,2.67-3.85,4.31-.74,1.04-1.44,2.13-2.11,3.28-.96.75-1.8,1.64-2.5,2.63,0,.03.02.09.04.07.59-.66,1.25-1.27,1.95-1.81-.2.35-.4.71-.59,1.07-.58,1.09-1.09,2.21-1.55,3.35,0,.04.03.09.05.06,1.04-1.8,2.08-3.6,3.19-5.3,1.11-1.7,2.24-3.28,3.47-4.8.68-.86,1.36-1.72,1.99-2.66.05-.07-.04-.23-.1-.19Z"/>
    <polygon class="cls-2" points="34.91 143.7 35.84 138.22 61.8 143.88 60.04 149.25 34.91 143.7"/>
    <path class="cls-5" d="m68.98,90.21c-1.27-.03-2.56.03-3.83-.12-.61-.1-1.23-.17-1.86-.18-.64.01-1.28.06-1.92.1-1.26.02-2.51.15-3.74.4-1.26.34-2.56.57-3.86.69-.05,0-.05.12-.01.11,1.28-.04,2.57.05,3.83.26.88.1,1.77.12,2.65.05-.56.05-1.11.14-1.65.29-.9.25-1.81.51-2.72.67-.05,0-.05.11-.01.11.89,0,1.77.08,2.65.22l.38.05c-.31.03-.63.06-.94.11-.47.08-.91.19-1.36.3-.2.04-.41.08-.62.1h-.09c-.18-.09-.4-.04-.53.11-.03.02,0,.07,0,.07.86.1,1.72.29,2.59.42.88.09,1.76.14,2.65.12,1.74.09,3.48-.09,5.17-.52.15-.04.15-.41,0-.46-.72-.18-1.46-.29-2.21-.34l.14-.02c.86-.15,1.72-.42,2.59-.64.04,0,.04-.12.02-.13-.83-.24-1.67-.44-2.52-.57-.27-.03-.55-.05-.83-.04l.34-.02c.61-.08,1.22-.21,1.81-.38,1.28-.25,2.58-.44,3.88-.55.11,0,.11-.21.01-.21Z"/>
    <path class="cls-5" d="m66.11,87.57c-.86-.15-1.72-.21-2.58-.36-.83-.2-1.68-.27-2.53-.22-1.71.17-3.39.78-5.11.92-.05,0-.05.12-.01.11,1.71-.14,3.4.29,5.11.36.85,0,1.7-.11,2.53-.31.86-.17,1.72-.21,2.58-.32.1,0,.09-.17.02-.18Z"/>
    <path class="cls-5" d="m63.18,96.78c-1.59-.23-3.15-.72-4.76-.92-.77-.09-1.54-.05-2.3.11-.83.16-1.63.47-2.47.56-.05,0-.05.11-.01.11.81.06,1.62.2,2.41.4.78.16,1.57.21,2.36.17,1.59-.12,3.16-.39,4.76-.28.08,0,.08-.13.01-.15Z"/>
    <path class="cls-8" d="m47.35,91.46c-.78,1.49-1.41,3.05-1.88,4.67.11-.91.19-1.82.28-2.73,0-.07-.11-.11-.13-.02-.28,1.15-.4,2.34-.36,3.53-.43,1.71-.73,3.45-1.02,5.19-.65,3.94-1.39,7.85-2.13,11.77-.42,2.2-.9,4.39-1.24,6.61,0,.02.01.04.03.04s.04-.01.04-.03c.6-1.87,1.05-3.78,1.49-5.69.44-1.91.86-3.92,1.24-5.89.73-3.78,1.24-7.59,1.99-11.36.35-2.08.95-4.11,1.78-6.06,0-.06-.08-.08-.09-.03Z"/>
  </g>
</svg>