<?xml version="1.0" encoding="UTF-8"?>
<svg id="_레이어_1" data-name="레이어 1" xmlns="http://www.w3.org/2000/svg" xmlns:xlink="http://www.w3.org/1999/xlink" viewBox="0 0 136.5 80">
  <defs>
    <style>
      .cls-1 {
        fill: #37474f;
      }

      .cls-2 {
        fill: #ff9bbc;
      }

      .cls-3 {
        clip-path: url(#clippath);
      }

      .cls-4 {
        fill: none;
      }

      .cls-5 {
        fill: #f7a9a0;
      }

      .cls-6 {
        fill: #7e57c2;
      }

      .cls-7 {
        isolation: isolate;
        opacity: .1;
      }

      .cls-8 {
        fill: #263238;
      }
    </style>
    <clipPath id="clippath">
      <rect class="cls-4" x="-1" y="-.5" width="136" height="81"/>
    </clipPath>
  </defs>
  <g class="cls-3">
    <g>
      <g id="freepik--Lines--inject-67">
        <path class="cls-8" d="m97.86,94.34c2.73-1.69,5.49-3.34,8.25-4.98l8.31-4.88,8.36-4.79,4.2-2.36,4.23-2.32-4.12,2.51-4.14,2.47-8.31,4.88-8.35,4.79c-2.81,1.58-5.62,3.16-8.43,4.69Z"/>
        <path class="cls-8" d="m71.07,40.31c1.15-.78,2.34-1.51,3.52-2.22,1.19-.71,2.38-1.43,3.58-2.14s2.41-1.39,3.64-2.05l1.84-1.01c.62-.32,1.23-.64,1.86-.95-.58.39-1.17.76-1.75,1.14l-1.78,1.1c-1.19.73-2.38,1.43-3.59,2.14s-2.41,1.39-3.64,2.05-2.44,1.33-3.69,1.94Z"/>
        <path class="cls-8" d="m61.33,41.62c1.23-.82,2.48-1.59,3.73-2.36s2.52-1.51,3.79-2.26,2.55-1.46,3.84-2.17l1.94-1.05c.65-.34,1.3-.69,1.96-1.01-.61.41-1.23.8-1.85,1.2l-1.88,1.16c-1.25.77-2.52,1.51-3.79,2.26s-2.55,1.46-3.84,2.17-2.58,1.41-3.9,2.06Z"/>
        <path class="cls-8" d="m98.43,84.44c1.49-.97,3-1.89,4.51-2.81s3.05-1.8,4.57-2.71,3.07-1.78,4.62-2.62l2.33-1.28c.78-.41,1.56-.84,2.35-1.24-.74.49-1.5.95-2.25,1.42l-2.27,1.39c-1.51.92-3.05,1.81-4.57,2.71s-3.07,1.78-4.62,2.62-3.11,1.71-4.68,2.52Z"/>
      </g>
      <g id="freepik--Character--inject-67">
        <path class="cls-8" d="m75.95,59.56c3.93,3.77,8.01,8.94,13.4,10.61,4.23,1.3,8.78.23,12.68-1.57,8.59-3.97,16.95-12.74,14.49-22.94-.98-4.08-6.09-9.09-10.7-7.81-2.37.67-4.21,2.3-6.23,3.64-2.64,1.77-5.36,1.86-8.44,1.04-6.02-1.58-6.11-3.56-10.99-7.13-.91-.66-4.58-1.89-6.02-1.68-1.39.1-2.72.57-3.86,1.37-1.14.54-2.13,1.34-2.88,2.35-1.55,2.19-1.39,5.73-1.6,8.29-.21,2.56.39,4.38,2.25,6.23,2.59,2.57,5.27,5.06,7.9,7.59Z"/>
        <path class="cls-8" d="m77.44,61.75c-3.38-3.68-6.68-7.42-10.01-11.15,0,0,0-.05.03-.03,2.83,2.98,5.69,5.93,8.48,8.95,2.79,3.03,5.34,6.18,8.33,8.91,6.7,6.09,15.61,1.53,20.35-4.54.22-.28.63.1.42.37-4.33,5.2-11.41,9.74-18.29,6.43-3.77-1.81-6.56-5.91-9.31-8.94Z"/>
        <path class="cls-8" d="m76.83,34.71s-.03-.07,0-.1c.03-.03.07-.03.1,0h0c3.9,3.11,8.15,7.1,13.28,7.83,2.53.36,5.1-.06,7.39-1.19,1.81-.9,3.17-2.34,4.75-3.57,6.17-4.74,13.98,2,13.35,8.81-.02.15-.26.13-.25-.03.23-4.99-3.18-9.68-8.41-10.03-4.2-.27-6.64,4.11-10.3,5.54-7.58,2.99-14.57-2.38-19.91-7.25Z"/>
        <path class="cls-5" d="m65.85,66.46c-.98,8.88.54,27.53,2.99,35.04,1.06,3.24,7.9,16.41,14.2,21.28,2.35,1.82,14.05-11.12,11.72-13.37-1.59-1.53-10.22-14.11-11.03-15.62-1.53-2.81-8.73-21.34-11.66-29.53-1.69-4.65-5.58-3.72-6.22,2.2Z"/>
        <path class="cls-6" d="m65.35,79.04l12.09-2.45s-2.99-9.62-5.6-14.76-5.7-2.49-6.39,5.88c-.69,8.37-.1,11.33-.1,11.33Z"/>
        <path class="cls-8" d="m76.04,74.23c-1.71.26-3.41.56-5.1.9-.83.17-1.67.33-2.5.51s-1.7.44-2.56.61c-.06.02-.05.11.01.1.84-.16,1.68-.26,2.52-.4s1.72-.34,2.58-.51c1.7-.34,3.38-.73,5.06-1.16.05,0,.04-.06-.01-.06Z"/>
        <path class="cls-7" d="m75.86,76.91l-10.52,2.13s-.59-2.97.08-11.33c.53-6.57,2.55-9.61,4.65-8.14l5.79,17.34Z"/>
        <polygon class="cls-8" points="78.45 76.89 77.74 75.29 64.61 78.53 64.82 80.17 78.45 76.89"/>
        <path class="cls-6" d="m68.35,86.45l-.75,9.4-31.32-11.9s13.88-19.88,24.14-25.89c5.3-3.11,10.52.19,11.46,4.53.24,1.1,2.83,13.57,1.12,18.11-.89,2.37-2.52,4.38-4.65,5.75Z"/>
        <path class="cls-5" d="m56.23,59.4c-3.24-5-13.38-20.98-14.2-23.5-2.92-8.9,9.23-12.17,11.07-10.33,3.43,3.44,6.45,16.61,8.93,27.42,1.12,4.94-.12,15.14-5.8,6.4Z"/>
        <path class="cls-5" d="m72.6,28.93c1.59-1.65-5.26-16.81-8.3-15.29-11.13,5.56-20.97,13.84-22.13,16.77-1.17,3.23.5,6.79,3.74,7.96.61.22,1.25.34,1.89.37,6.29.34,23.24-8.14,24.8-9.8Z"/>
        <path class="cls-8" d="m52.65,38.21c6.92-1.19,15.31-6.34,15.33-6.34.12-.04.1-.23.02-.2-1.3.45-10.44,4.97-15.37,6.35-.04.01-.03.2.02.2Z"/>
        <path class="cls-5" d="m63.43,14.11c1.54-1.25,9.22-6.47,11.65-7.41s9.64-3.17,10.56-1.38c.91,1.79-1.15,2.63-1.15,2.63,0,0,3.19-.45,3.95,1.43s-2.49,3.05-2.49,3.05c0,0,3.32-.23,3.95,1.71.63,1.93-2.84,2.56-2.84,2.56,0,0,3.02-.35,2.86,1.46-.19,2.17-5.83,2.19-8.44,3.44-.59.28-11.6,6.59-11.6,6.59l-6.46-14.07Z"/>
        <path class="cls-8" d="m87.37,16.61c-4.16.02-5.96.75-9.39,2.94-.07.04-.15-.05-.08-.1,3.17-2.45,5.31-3.69,9.48-3.05.2.03.19.2,0,.2Z"/>
        <path class="cls-8" d="m86.31,12.41c-4.31.4-6.27,1.17-10.04,3.2-.05.03-.11-.06-.05-.09,3.51-2.31,5.69-3.49,10.04-3.32.2,0,.25.2.06.21Z"/>
        <path class="cls-8" d="m84.32,8.04c-4.14.69-6.33,1.44-9.74,3.89-.04.02-.08.02-.11-.02-.02-.03-.02-.08.01-.1,3.23-2.83,5.96-3.78,9.8-3.88.26-.01.3.07.03.11Z"/>
        <path class="cls-5" d="m67.72,29.6s5.11.93,7.44.84,10.92-3.6,10.26-5.5c-.85-2.44-6.2-1.39-8.76-.53,0,0-1.95-5.66-5.96-5.73s-2.98,10.91-2.98,10.91Z"/>
        <path class="cls-8" d="m84.98,24.34c-2.38-1.67-5.67-.33-8.21.32-.13.04-.26-.03-.3-.16,0-.03-.01-.05-.01-.08-.98-2.32-3.05-5.31-5.63-5.85-.03,0-.06-.03-.05-.07s.03-.06.07-.05c2.87.21,5.13,2.98,6.04,5.59,2.6-.7,5.95-1.91,8.12.29l-.02.02Z"/>
        <path class="cls-6" d="m59.59,41.61l-11.91,5.39s5.34,9.23,9.32,13.93c3.97,4.69,6.5,1.21,5.21-7.59-1.3-8.8-2.62-11.73-2.62-11.73Z"/>
        <path class="cls-8" d="m49.7,49.12c1.7-.68,3.39-1.39,5.05-2.15.82-.36,1.65-.72,2.45-1.12s1.65-.86,2.49-1.26c.03-.01.04-.04.03-.07s-.04-.04-.07-.03c-.82.36-1.68.66-2.51,1.01s-1.7.76-2.54,1.14c-1.67.76-3.32,1.55-4.95,2.39-.03.06,0,.11.05.09Z"/>
        <path class="cls-8" d="m55.93,59.5c.78,1.19,1.28,2.6,2.02,3.8.02.03,0,.06-.04.04-.39-.58-.91-1.38-1.08-1.68.04.13.24,1.06.32,1.47,0,0-.03.03-.03,0-.16-.39-.59-1.91-.65-2.23-.23-.44-.42-.9-.58-1.37-.03,0,.03-.07.05-.03Z"/>
        <polygon class="cls-8" points="46.82 46.49 47.82 47.93 60.13 42.35 59.62 40.77 46.82 46.49"/>
        <path class="cls-8" d="m66.06,56.5c-1.72-.14-3.2.63-2.94,2.3s3.33,6.17,5.81,6.23,2.82-3.26,2.75-4.14-1.43-4.05-5.61-4.4Z"/>
        <path class="cls-5" d="m64.4,57.98c-.05.63,2.25,5.09,5.04,5.39,1.12.14,1.59-3.91,1.59-3.91l.19-.33,2.65-4.57-4.63-5.53-.68-.75s-.64,1.3-1.43,2.92l-.11.23c-.05.09-.1.18-.13.26-.12.24-.24.49-.36.74s-.18.37-.26.57-.18.4-.27.6c-.63,1.42-1.17,2.88-1.6,4.38Z"/>
        <path class="cls-8" d="m73.88,54.56l-1.33,2.29c-2.77.86-6.12-1.17-7.12-1.84.18-.46.38-.94.58-1.41l.27-.59c.09-.21.18-.39.26-.58s.24-.5.36-.74c.04-.09.09-.17.13-.26l.11-.23c.78-1.63,1.43-2.92,1.43-2.92l.68.75,4.63,5.53Z"/>
        <path class="cls-5" d="m63.2,42.84c-3.67,8.53,1.03,11.68,2.88,12.47,1.67.72,7.46,2.94,11.99-5.16,4.53-8.1,1.72-12.5-2.02-14.34s-9.18-1.5-12.85,7.03Z"/>
        <path class="cls-8" d="m71.39,36.23s-.76,1.29-.58,2.44c.38,2.35,2.98,2.49,3.58,3.55s-.17,2.51.32,3.48c.68,1.34,2.15,1.31,2.09,2.07s-.24,3.2.58,3.72,9.28-13.5-2.56-16.31c0,0-1.41-1.13-4.27-.52-3.15.64-5.68,4.92-5.68,4.92,0,0,.08-.05.58-.29.72-.37,1.06-.76,1.57-.97.8-.34,1.1-.04,1.92-.36.92-.42,1.74-1.01,2.45-1.73Z"/>
        <path class="cls-8" d="m71.76,35.64c-.35.54-.65,1.13-.87,1.74-.25.58-.34,1.22-.26,1.84.16.59.53,1.11,1.04,1.45.5.36,1.09.59,1.62,1.01.28.21.49.5.61.83.09.33.12.67.08,1.01-.11.62-.05,1.25.17,1.84.27.56.77.97,1.37,1.12.59.16,1.29.16,1.77.6-.53-.38-1.2-.33-1.82-.46-.67-.14-1.23-.57-1.54-1.17-.26-.62-.34-1.3-.22-1.96.03-.3,0-.61-.08-.9-.11-.27-.29-.51-.53-.68-.47-.38-1.07-.63-1.59-1.03-.27-.2-.51-.43-.7-.7-.21-.27-.35-.59-.4-.92-.06-.67.06-1.34.35-1.95.27-.59.61-1.14,1-1.66Z"/>
        <path class="cls-8" d="m71.38,36.1c-.28.54-.62,1.04-1.04,1.49-.41.47-.95.82-1.55.99-.3.06-.6.09-.9.09-.27.01-.53.1-.76.25-.22.21-.45.4-.71.56-.27.14-.57.22-.87.24.29-.07.55-.19.79-.36.23-.18.44-.39.64-.61.25-.21.56-.33.88-.35.29,0,.57-.04.85-.1.55-.16,1.05-.46,1.45-.87.43-.41.84-.85,1.21-1.32Z"/>
        <path class="cls-5" d="m75.83,49.61s2.73-2.25,3.8-1.2-1.52,4.68-3.16,4.82c-.86.13-1.67-.46-1.8-1.32,0-.02,0-.04,0-.06l1.16-2.25Z"/>
        <path class="cls-8" d="m78.87,49.44s.02.04,0,.04c-1.16.13-1.96.95-2.64,1.84.34-.33.89-.33,1.22.01.03.03.06.07.09.11.02.03,0,.06-.04.05-.34-.22-.79-.21-1.11.04-.27.2-.51.43-.72.69-.08.08-.23-.03-.17-.11v-.03c.36-1.33,1.91-2.91,3.38-2.64Z"/>
        <path class="cls-8" d="m65.89,42.39c.21.05.42.05.63.1.22.07.46.06.67-.02.13-.08.19-.23.15-.38-.13-.27-.39-.45-.69-.47-.29-.07-.6-.02-.86.12-.17.11-.21.33-.1.49.05.07.12.13.21.15Z"/>
        <path class="cls-8" d="m71.54,45.54c-.21-.05-.41-.12-.61-.19-.23-.04-.43-.15-.59-.32-.08-.13-.06-.3.05-.4.23-.18.55-.23.83-.11.29.08.55.25.71.5.1.17.05.38-.12.48-.08.05-.18.06-.27.04Z"/>
        <path class="cls-8" d="m69.92,46.16s.04.05.02.07c-.27.58-.48,1.28-.03,1.7,0,0,0,.04,0,.03-.62-.37-.34-1.3.01-1.8Z"/>
        <path class="cls-8" d="m70.7,45.77c.97.33.24,2.25-.66,1.94s-.16-2.21.66-1.94Z"/>
        <path class="cls-8" d="m71.04,46.01c.13.17.22.43.4.51s.46-.02.71-.16c.02,0,.03,0,.02.04-.13.37-.42.69-.83.6s-.51-.52-.47-.91c.02-.06.12-.14.17-.07Z"/>
        <path class="cls-8" d="m66.43,44.67s-.05,0-.06.04c-.17.61-.47,1.28-1.08,1.31v.03c.69.14,1.08-.76,1.15-1.38Z"/>
        <path class="cls-8" d="m66.08,43.89c-.95-.39-1.65,1.54-.77,1.9s1.56-1.58.77-1.9Z"/>
        <path class="cls-8" d="m65.67,43.85c-.21.05-.44.18-.65.13s-.35-.33-.43-.58c0-.03-.03,0-.04,0-.2.34-.09.78.24,1,.35.18.72-.05.97-.39.02-.05,0-.18-.09-.15Z"/>
        <path class="cls-8" d="m67.72,50.71c-.19.1-.4.25-.62.19-.22-.08-.43-.2-.6-.36,0,0-.04,0-.04.02.1.3.35.52.66.57.27.02.53-.14.65-.38.02-.03-.02-.06-.05-.05Z"/>
        <path class="cls-8" d="m66.07,47.62c-.23.41-.43.83-.61,1.26,0,.04.08.1.22.16h0c.68.41,1.54.41,2.22,0,.02-.01.03-.04.02-.06s-.04-.03-.06-.02h0c-.67.16-1.38.1-2.02-.18.02-.13.84-1.41.78-1.44-.33-.1-.68-.15-1.03-.15.91-1.77,2.11-3.39,2.99-5.17,0-.07-.06-.12-.1-.07-1.37,1.6-2.47,3.62-3.46,5.43-.11.23.87.25,1.06.24Z"/>
        <path class="cls-8" d="m65.76,48.89c.1.43.31.83.61,1.16.17.17.38.29.62.33.52.09.73-.33.8-.73.04-.21.06-.43.05-.65-.69.19-1.42.15-2.08-.11Z"/>
        <path class="cls-2" d="m66.37,50.05c.17.17.38.29.62.33.52.09.73-.33.8-.73-.51-.21-1.1-.05-1.43.4Z"/>
        <path class="cls-1" d="m59.58,145.29l-23.49-5.13,4.66-21.9s-7.53-2.6-10.93-6.28c-10.15-11.02,6.48-28.02,6.48-28.02l26.93,5.37-21.76-4.34c.78-1.22,4.47-5.14,8.09-6.73s13.68-1.69,16.47.9c12.4,11.51-6.44,66.12-6.44,66.12Z"/>
      </g>
    </g>
  </g>
</svg>