<?xml version="1.0" encoding="UTF-8"?>
<svg id="_레이어_1" data-name="레이어 1" xmlns="http://www.w3.org/2000/svg" xmlns:xlink="http://www.w3.org/1999/xlink" viewBox="0 0 260.232 245.449">
  <defs>
    <style>
      .cls-1 {
        fill: #fff;
      }

      .cls-2 {
        fill: #f7c3b5;
      }

      .cls-3 {
        clip-path: url(#clippath);
      }

      .cls-4 {
        fill: none;
      }

      .cls-5 {
        fill: #7e57c2;
      }

      .cls-6 {
        isolation: isolate;
        opacity: .2;
      }

      .cls-6, .cls-7 {
        fill: #263238;
      }
    </style>
    <clipPath id="clippath">
      <rect class="cls-4" x="-16.374" y="1.892" width="291.623" height="243.134"/>
    </clipPath>
  </defs>
  <path class="cls-2" d="m113.3,149.685c22.74,12.62,106.86,44.9,125.74,33.42,14.07-8.56,12.06-26.93.09-38.78-10.41-10.31-88.41-13.21-110.24-13.81-20.75-.61-37.85,6.77-15.59,19.17Z"/>
  <path class="cls-5" d="m169.23,178.155l33.9-46.51s-58.66-5.71-83.43-3.57c-25.82,2.23-31.11,12.33.06,26.7,30.7,14.15,49.47,23.38,49.47,23.38Z"/>
  <path class="cls-7" d="m119.76,154.765c30.7,14.15,49.47,23.39,49.47,23.39l10.81-14.88-81.26-27.8c-2.33,4.72,3.77,11.36,20.98,19.29Z"/>
  <g class="cls-3">
    <path class="cls-5" d="m157.98,304.265H23.04s20.61-128.72,70.33-172.74c6.14-5.44,20-4.2,29,.29,3.23,1.61,14.82,17.82,18.13,33.16s17.84,138.83,17.48,139.29Z"/>
    <path class="cls-2" d="m70.28,308.895c0-7.55,2.19-53.17.89-68.13-.44-5,16.88-60.93,21.35-79.71,4.2-17.62-4.77-25.4-17.94-8.81-10.95,13.8-39.57,67.69-45.35,82.08s-11.8,62.87-11.76,73.12c.04,8.11,52.78,8.91,52.81,1.45Z"/>
    <path class="cls-5" d="m81.75,218.825l-54.49.18s29.77-50.86,46-69.67c16.94-19.61,28.23-18,21.59,15.7-6.51,33.17-13.1,53.79-13.1,53.79Z"/>
    <path class="cls-7" d="m36.19,210.225c1.37-.15,2.77-.11,4.14-.13l4.24-.08c2.87-.06,5.74-.07,8.6-.06,5.73,0,11.46,0,17.18.11,1.58,0,3.15.07,4.72.14s3.31.27,5,.34c.1,0,.08.15,0,.16-1.42,0-2.84.19-4.26.24s-2.91.08-4.37.09h-8.59c-5.64-.05-11.28-.08-16.92-.26l-4.72-.16c-1.64-.05-3.33,0-5-.22-.09-.03-.11-.16-.02-.17Z"/>
    <path class="cls-7" d="m89.04,193.555c1.169-1.771,1.987-3.75,2.41-5.83,0,0-.06-.05-.07,0-.586,1.789-1.322,3.525-2.2,5.19l.51-2.25c.6-2.73,1.21-5.44,1.68-8.19,0,0-.06-.07-.07,0-1.37,4.66-2.53,9.4-3.79,14.1s-2.54,9.53-3.79,14.3c-.69,2.61-1.38,5.21-2,7.82-.89.08-1.58.05-2.37.12-.21,0-.23.38,0,.4.999.079,2.004.062,3-.05,2.69-8.41,4.75-17.01,6.69-25.61Z"/>
  </g>
  <path class="cls-7" d="m163.51,169.185c.68-1.2,1.53-2.31,2.31-3.44s1.61-2.32,2.41-3.49c1.63-2.36,3.3-4.69,5-7,3.36-4.64,6.7-9.29,10.14-13.87.94-1.26,1.89-2.52,2.87-3.75s2.15-2.53,3.17-3.82c.06-.09.17,0,.12.1-.8,1.17-1.5,2.41-2.29,3.59s-1.64,2.41-2.48,3.59c-1.66,2.34-3.327,4.673-5,7-3.34,4.54-6.66,9.1-10.1,13.57l-2.89,3.74c-1,1.3-1.95,2.69-3.07,3.9-.12.02-.24-.04-.19-.12Z"/>
  <path class="cls-2" d="m191.44,47.185c-6.3-8.77-22.35-21-38.38-30.45-7.78-4.61-31.51-15.46-35.5-9.77s2.66,9.49,2.66,9.49c0,0-10.71-3.09-14.21,3s7.03,11.65,7.03,11.65c0,0-11.24-2.37-14.29,4s8.49,10.14,8.49,10.14c0,0-10.17-2.64-10.49,3.63-.38,7.56,18.92,10.31,27.26,15.84,1.9,1.25,36.6,28.16,36.6,28.16l30.83-45.69Z"/>
  <path class="cls-7" d="m107.38,45.405c14.19,2.07,20,5.42,30.77,14.59.21.18.52-.09.32-.3-9.69-9.93-16.42-15.2-31-15-.74.03-.76.62-.09.71Z"/>
  <path class="cls-7" d="m112.53,30.855c14.55,3.43,20.92,7,32.87,15.79.16.13.39-.15.23-.29-11-9.59-17.83-14.69-32.82-16.2-.67-.05-.95.55-.28.7Z"/>
  <path class="cls-7" d="m121.41,16.795c13.84,4.34,21,8,31.5,18,.112.098.283.086.381-.026.085-.098.089-.242.009-.344-9.71-11.25-18.61-15.84-31.72-18-.89-.18-1.05.1-.17.37Z"/>
  <path class="cls-2" d="m166.09,101.515s-17.55-3.87-24.88-7.26-30-26.12-25.37-31.3c6-6.68,21.65,3.86,28.65,10,0,0,13.81-15.47,26.69-10.34s-5.09,38.9-5.09,38.9Z"/>
  <path class="cls-7" d="m118.09,61.665c9.85-2.16,18.51,6.52,25.75,12,.344.295.862.254,1.156-.09.068-.079.12-.171.154-.27,6.22-6.09,16.78-12.88,25.81-11.17.115.013.219-.07.232-.185.01-.09-.039-.177-.122-.215-9.44-3.16-20.35,2.67-26.74,9.78-7.33-5.73-16.4-14.06-26.27-9.94-.022.017-.027.048-.01.07.009.013.024.02.04.02Z"/>
  <path class="cls-2" d="m248.88,166.785c-.63,19.43-23.67,18.09-33.62,8.85-23.37-21.67-57.82-65.89-67.16-93.15-3-8.77,32.28-47.31,39.14-40.15,12.19,12.7,62.92,85.02,61.64,124.45Z"/>
  <path class="cls-7" d="m189.7,148.105c1.72,1.75,3.37,3.54,5,5.35s3.27,3.62,4.89,5.44l4.81,5.51c.79.92,1.6,1.83,2.42,2.74s1.63,1.81,2.45,2.72c-1.92-1.522-3.734-3.172-5.43-4.94-1.73-1.73-3.38-3.54-5-5.37s-3.2-3.69-4.72-5.61-3.01-3.84-4.42-5.84Z"/>
  <path class="cls-7" d="m199.5,159.525c.82,1.18,1.53,2.33,2.24,3.51.34.59.69,1.18,1,1.79.337.621.634,1.262.89,1.92-1.119-.881-2.057-1.971-2.76-3.21-.362-.608-.67-1.247-.92-1.91-.26-.672-.412-1.381-.45-2.1Z"/>
  <path class="cls-7" d="m89.95,138.755c3.821,7.069,9.409,13.026,16.22,17.29,3.255,2.151,6.994,3.457,10.88,3.8,2.021.206,4.055-.224,5.82-1.23,1.636-1.187,2.935-2.779,3.77-4.62,1.013-2.085,1.711-4.31,2.07-6.6.449-2.591.713-5.211.79-7.84,0-.1.15-.08.14,0-.07,2.49.06,5-.2,7.46-.184,2.187-.647,4.341-1.38,6.41-.703,1.958-1.814,3.744-3.26,5.24-1.52,1.47-3.519,2.343-5.63,2.46-4.14.201-8.247-.822-11.81-2.94-3.606-2.006-6.878-4.56-9.7-7.57-3.26-3.472-5.935-7.451-7.92-11.78-.044-.05-.039-.126.011-.169.05-.044.126-.039.169.011.019.022.03.05.03.079Z"/>
  <path class="cls-2" d="m120.47,154.325c-7.7,2.15-21.52-9.19-27.18-18.61-.38-.65.35-7.64.84-16.19.27-5.19.46-11,.25-16.26-.05-1.08,33.49,6.73,33.49,6.73,0,0-2.82,11.21-2.39,20.43.038.728.141,1.451.31,2.16,0,.1.05.22.07.36.83,4.1,2.05,19.3-5.39,21.38Z"/>
  <path class="cls-7" d="m122.46,133.255c1.137-.009,2.271-.113,3.39-.31-.012-.121-.032-.242-.06-.36-.174-.708-.278-1.432-.31-2.16-.42-9.21,2.38-20.43,2.38-20.43,0,0-27.22-6.34-32.58-6.81,1.27,6.07,7.6,30.43,27.18,30.07Z"/>
  <path class="cls-2" d="m96.79,57.245c-6,10.74-7.18,45.28-.62,54.47,9.52,13.32,28.71,18.58,40.94,6.31,11.85-11.92,12.58-56.92,4.93-65.65-11.32-12.85-36.36-10.99-45.25,4.87Z"/>
  <path class="cls-7" d="m136.5,60.965c-2.879,3.503-7.366,5.266-11.86,4.66-4.38-.63-8.77-3.56-10.41-7.77-.034-.051-.102-.064-.152-.031-.037.024-.055.068-.048.111,1.76,4.49,5.5,8.15,10.45,8.74,4.777.481,9.45-1.614,12.27-5.5.12-.17-.12-.37-.25-.21Z"/>
  <path class="cls-7" d="m123.51,32.985c-5.44-1.46-11.4,1.16-14.62,5.63-1.856,2.698-2.998,5.822-3.32,9.08.018.058.08.09.138.072.034-.011.061-.038.072-.072.93-5.13,4.14-10.32,8.91-12.66,4.452-2.371,9.918-1.656,13.61,1.78,1.991,1.874,3.282,4.372,3.66,7.08.038.127.171.2.298.162.099-.029.168-.119.172-.222-.396-5.133-3.961-9.469-8.92-10.85Z"/>
  <path class="cls-7" d="m164.4,45.535c-1.231-3.519-3.673-6.486-6.89-8.37-4.45-2.64-9.41-2.14-14.33-1.55-.058.018-.09.08-.072.138.011.034.038.061.072.072,4.19-.49,8.47-.75,12.37,1.16,3.226,1.554,5.815,4.176,7.33,7.42,3,6.902.478,14.959-5.92,18.92-3.663,2.136-8.045,2.664-12.11,1.46-.15,0-.27.19-.1.24,8.089,2.733,16.862-1.609,19.595-9.698,1.072-3.174,1.085-6.61.035-9.792h.02Z"/>
  <path class="cls-7" d="m94.85,61.885s.6-10.55,3.33-13.78,8.77-4,8.77-4c0,0,3.52-8.93,12-9.53,7.64-.54,12.82,6.2,12.82,6.2,0,0,10.56-10.51,22.65-4.56,11.48,5.65,10,23.12-1.05,28.72-7.8,3.92-18.55-2.87-18.55-2.87-1,.15-11.43,6.63-19.49-2.63,0,0-7.15,5.6-11.28,1.69-.01-.02-5.47,2.64-9.2.76Z"/>
  <path class="cls-6" d="m103.49,49.655c-.37,5.22-1.57,20.08-3.47,23.34s-6.43,11.79-8.27,12.39c.2-11.23,2-22.72,5-28.14,1.69-2.975,3.986-5.561,6.74-7.59Z"/>
  <path class="cls-2" d="m96.56,85.195s-5.42-12.27-10.85-10.54-2.83,18.48,2.5,21.75c2.712,1.903,6.454,1.248,8.358-1.465.031-.045.062-.09.092-.135l-.1-9.61Z"/>
  <path class="cls-7" d="m86.58,79.435c-.09,0-.14.1-.06.15,3.7,2.42,5.09,6.58,5.81,10.75-.9-1.73-2.37-2.87-4.65-1.84-.12.06,0,.24.07.24,1.533-.185,3.016.616,3.7,2,.555,1.143.981,2.343,1.27,3.58.12.39.8.33.75-.11.005-.033.005-.067,0-.1,1.1-5.09-1.43-13.07-6.89-14.67Z"/>
  <path class="cls-7" d="m120.64,84.605c0-.09-.19.1-.19.2,0,2.33-.42,5-2.56,5.69-.06,0-.06.13,0,.13,2.6-.27,3.15-3.81,2.75-6.02Z"/>
  <path class="cls-7" d="m118.65,82.105c-3.73-.42-4.31,7.07-.85,7.46s3.98-7.11.85-7.46Z"/>
  <path class="cls-7" d="m135.23,85.595c0-.09.18.12.17.21-.26,2.32-.16,5,1.88,6,.07,0,.05.14,0,.12-2.56-.6-2.66-4.18-2.05-6.33Z"/>
  <path class="cls-7" d="m137.49,83.325c3.76,0,3.47,7.52,0,7.51s-3.15-7.51,0-7.51Z"/>
  <path class="cls-7" d="m114.92,77.445c.88-.58,1.79-1,2.72-1.46.882-.662,1.958-1.013,3.06-1,.705.157,1.218.768,1.25,1.49,0,1.5-1.14,2.5-2.38,3.21-1.224.757-2.685,1.032-4.1.77-.905-.251-1.435-1.188-1.184-2.092.102-.369.326-.692.634-.918Z"/>
  <path class="cls-7" d="m142.15,80.425c-.773-.684-1.581-1.329-2.42-1.93-.755-.793-1.749-1.317-2.83-1.49-.723.027-1.338.535-1.5,1.24-.24,1.48.68,2.66,1.77,3.58,1.065.966,2.452,1.5,3.89,1.5.932-.048,1.649-.843,1.6-1.775-.022-.426-.204-.828-.51-1.125Z"/>
  <path class="cls-7" d="m121.47,102.745c3-1,6.78-.31,9.16.16.27,0,.55-.54.61-.78h0c0-.09.2-4.92.2-4.92.62.37,3.81,2.08,3.82,1.15.08-7.67.17-16.2-1.37-23.85,0-.116-.094-.21-.21-.21s-.21.094-.21.21c-.37,7.37.56,14.76.3,22.16-1.129-.626-2.341-1.087-3.6-1.37-.26.05.06,5.21-.09,6,0,0-4.58-1.74-8.58.43-1.03.57-1.46,1.48-.03,1.02Z"/>
  <path class="cls-7" d="m116.53,105.845c.52.58,1,1.35,1.85,1.48.857.041,1.713-.102,2.51-.42.04-.019.088-.003.107.037.015.031.008.069-.017.093-.742.857-1.892,1.24-3,1-.944-.31-1.608-1.159-1.68-2.15-.02-.08.16-.12.23-.04Z"/>
  <path class="cls-1" d="m106.13,79.265c-3.17,0-1.47-6-.8-8.07.464-2.212.732-4.461.8-6.72.067,2.261.345,4.511.83,6.72.66,2.08,2.36,8.07-.83,8.07Z"/>
  <path class="cls-7" d="m145.81,95.465c.25-2.75.44-5.49.56-8.24s.21-5.49.19-8.24-.06-5.48-.19-8.23c0-1.37-.14-2.74-.25-4.11s-.24-2.75-.31-4.13c.618,2.695,1.062,5.428,1.33,8.18.29,2.757.43,5.528.42,8.3,0,2.769-.14,5.536-.42,8.29-.15,1.37-.32,2.74-.52,4.11s-.47,2.71-.81,4.07Z"/>
</svg>